<?xml version="1.0" encoding="utf-8"?>
<!-- Generator: Adobe Illustrator 19.1.0, SVG Export Plug-In . SVG Version: 6.00 Build 0)  -->
<svg version="1.1" id="Capa_1" xmlns="http://www.w3.org/2000/svg" xmlns:xlink="http://www.w3.org/1999/xlink" x="0px" y="0px"
	 viewBox="0 0 2700 667" style="enable-background:new 0 0 2700 667;" xml:space="preserve">
<style type="text/css">
	.st0{fill:#FFFFFF;}
	.st1{fill:#424243;}
</style>
<g>
	<g>
		<path class="st0" d="M239.5,560.3c-9.1,31.6-32.9,49-67.7,49c-47.5,0-72.2-31.9-72.2-93.9c0-61,27.3-94.9,74.2-94.9
			c33.1,0,54.8,17,61.9,48l-31.8,7.8c-4.5-17.6-15.4-26.7-32-26.7c-25,0-37.1,21.9-37.1,66.1c0,42.3,11.6,63,37.9,63
			c16.9,0,30.3-10.3,35.1-27.2L239.5,560.3z"/>
		<path class="st0" d="M284.7,540c0-28.1,8.4-41.8,25.1-41.8c17,0,25.1,13.7,25.1,41.8c0,28.1-8.1,42.1-25.1,42.1
			C293.1,582.1,284.7,568.1,284.7,540z M253.2,540c0,43.4,21.4,68.7,56.6,68.7c35.2,0,56.6-25.1,56.6-68.7
			c0-43.6-21.2-68.8-56.6-68.8C274.4,471.2,253.2,496.4,253.2,540z"/>
		<path class="st0" d="M390.4,473.7h28.8v15.4c10.3-11.8,22.5-17.9,37.3-17.9c15.7,0,26.1,6.4,32.7,19.7
			c13.4-13.3,26.1-19.7,42.8-19.7c22,0,35.4,12.9,35.4,33.6v101.5H536v-91.3c0-11.4-5-18-14.4-18c-9.7,0-19,4.6-27.9,13.7v95.7
			h-30.6v-87.8c0-14.4-4.1-21.2-13.6-21.2c-10.4,0-20.5,4.8-28.1,13.7v95.4h-31V473.7z"/>
		<path class="st0" d="M630.4,572.2v-63c7.8-7.6,14.9-11.7,23.5-11.7c17.5,0,28.1,15,28.1,42.6c0,27.8-10.9,43.3-27.8,43.3
			C645.6,583.3,638.5,579.5,630.4,572.2z M630.7,593.6c9.1,10.6,18.7,15.1,32.1,15.1c28.6,0,50.5-25.9,50.5-68.6
			c0-41.3-21.5-68.8-51.6-68.8c-14.7,0-24.8,5-35.9,16.9l-3.3-14.4H600v180.4h30.7V593.6z"/>
		<path class="st0" d="M774.1,608.7c-24.5,0-36.9-14.2-36.9-42.7v-92.2h31.4v85.9c0,16.2,3.7,23.8,15.1,23.8
			c9.4,0,18.7-5.1,29.3-14.8v-94.9h31v132.5h-28.7v-15.4C800.7,602.7,788.8,608.7,774.1,608.7z"/>
		<path class="st0" d="M903.6,550.9c9.6,19.5,20.9,28,37.3,28c18.6,0,29.7-9.3,29.7-23.2c0-12.4-8.3-18.7-27.2-25.8
			c-16.4-6.1-31.5-11.1-43.6-18.9c-13.9-8.8-21.5-23-21.5-40.4c0-29.1,23.5-50.1,59.8-50.1c31.3,0,52.1,13.7,61.7,40.3l-31.2,11.3
			c-7.6-16.2-17.4-23.5-33-23.5c-15.2,0-24.2,7.6-24.2,19.5c0,17.2,17.9,20.2,46.8,32.6c30.5,12.9,45.5,24.8,45.5,53.5
			c0,33.3-22.9,54.5-62.2,54.5c-33.8,0-57.6-15.1-69.4-43.9L903.6,550.9z"/>
		<path class="st0" d="M1051.9,540c0-28.1,8.4-41.8,25-41.8c17,0,25.1,13.7,25.1,41.8c0,28.1-8.1,42.1-25.1,42.1
			C1060.3,582.1,1051.9,568.1,1051.9,540z M1020.3,540c0,43.4,21.5,68.7,56.6,68.7c35.3,0,56.7-25.1,56.7-68.7
			c0-43.6-21.2-68.8-56.7-68.8C1041.5,471.2,1020.3,496.4,1020.3,540z"/>
		<path class="st0" d="M1157.6,422.7h31.3v183.5h-31.3V422.7z"/>
		<path class="st0" d="M1258.4,608.7c-24.5,0-36.9-14.2-36.9-42.7v-92.2h31.4v85.9c0,16.2,3.8,23.8,15.1,23.8
			c9.4,0,18.7-5.1,29.3-14.8v-94.9h31v132.5h-28.7v-15.4C1285,602.7,1273.1,608.7,1258.4,608.7z"/>
		<path class="st0" d="M1461,575c-9.1,22-27,33.7-52,33.7c-37.4,0-57.1-23.5-57.1-68.8c0-42.9,22-68.3,57.1-68.3
			c24.8,0,43,12.1,50.8,34.2l-26.3,11.4c-4.6-13.4-11.4-20-22.5-20c-19.2,0-27.8,14.1-27.8,44.4c0,27.3,8.3,40.4,25.8,40.4
			c12.4,0,21.2-6.3,27.8-19.9L1461,575z"/>
		<path class="st0" d="M1484.1,473.7h31.3v132.5h-31.3V473.7z M1484.1,422.7h31.3v29.5h-31.3V422.7z"/>
		<path class="st0" d="M1570.6,540c0-28.1,8.4-41.8,25.1-41.8c17,0,25.1,13.7,25.1,41.8c0,28.1-8.1,42.1-25.1,42.1
			C1579,582.1,1570.6,568.1,1570.6,540z M1539,540c0,43.4,21.5,68.7,56.6,68.7c35.2,0,56.7-25.1,56.7-68.7
			c0-43.6-21.2-68.8-56.7-68.8C1560.3,471.2,1539,496.4,1539,540z"/>
		<path class="st0" d="M1676.2,473.7h28.7v15.6c14.7-11.8,26.3-18.1,40.9-18.1c24.5,0,37.2,14.3,37.2,42.9v92.2h-31.3v-86.1
			c0-16.2-3.8-23.6-15.2-23.6c-9.4,0-18.7,4.8-29.3,14.7v94.9h-31V473.7z"/>
		<path class="st0" d="M1837.3,522.9c1.2-18,10.1-28.2,24.2-28.2c14.9,0,24.1,10.4,24.1,28.2H1837.3z M1914.9,580.2l-23-14.2
			c-7.3,11.7-15.2,17-27.1,17c-18.4,0-27.8-12.6-28-37.6h79.4c0-2.3,0.3-4.6,0.3-6.8c0-43.1-20.5-67.4-54.9-67.4
			c-34.4,0-55.6,25-55.6,69.2c0,43.4,21,68.3,56.1,68.3C1886.5,608.7,1904.8,598.9,1914.9,580.2z"/>
		<path class="st0" d="M1950.5,565.6c9.9,12.6,19.5,19,30.3,19c11.7,0,18.5-5.8,18.5-14.7c0-10.9-9.3-13.4-24.3-18.9
			c-27.4-10.4-41.5-19-41.5-41c0-22,17.9-38.7,45.5-38.7c18.5,0,32.7,6.6,44.8,20.3l-19.7,17.2c-8.4-8.8-16.7-13.4-25.8-13.4
			c-10.9,0-16.9,5.3-16.9,13.2c0,8.9,10.9,11.1,29.6,18.5c24.3,9.3,36.5,18.4,36.5,41.5c0,24.5-18.2,40.6-46.3,40.6
			c-22.1,0-38-8.3-51.9-26.7L1950.5,565.6z"/>
	</g>
	<g>
		<g>
			<path class="st0" d="M2368.7,211.1C2368.7,211.2,2368.7,211.2,2368.7,211.1L2368.7,211.1L2368.7,211.1z"/>
			<path class="st0" d="M2371.5,230.3c-1.9-3.1-7-13.2-7.9-15.2c-11,8-22.3,12.4-33.2,10c-4.1-0.9-9-4.7-14.2-6.9
				c-9.9-4.2-23.9-6.7-33.2-7.3c3.4,10.6,8.8,20.1,16.5,27.9c13.7,14,32,18.8,51.7,14.2C2356.1,246.3,2365.4,235.8,2371.5,230.3z"/>
			<path class="st0" d="M2426.2,50.1c-51.4-52.3-140.2,28.4-147.4,120.1c2.1,0,24.3,2.7,26.4,3.2c3.5-71.9,70.3-131.3,98.5-102.7
				c23.1,23.5,8.8,71.9-1.7,95.1c-6.8,15,6.4,36.9,10.6,43C2446.5,164,2463.4,87.9,2426.2,50.1z"/>
			<path class="st0" d="M2532.6,274.2c-21.2-50.3-69-76.6-117.3-61.8c5.9,7.8,13.4,14.6,23.7,22.9c11.6,9.3,24.4,10,34.6,18.6
				c41.4,35.3,42.4,126.6-6.5,174.6c-48.3,47.5-104.3,16.7-113.3-52.2c-9.8,5.1-19.5,8.6-29.5,11.1c14.1,98.2,104.8,135.3,172.2,69
				C2545.3,408.4,2556.2,330.2,2532.6,274.2z"/>
			<path class="st0" d="M2359.1,316.2c7-22.2,19.4-42.6,35.7-56.8c-7.4-7.2-14.3-15.4-19.8-23.5c-0.1-0.1-0.1-0.1-0.2-0.2
				c-27.9,25.5-46.2,64.8-51,104.1C2335.4,335.8,2349.7,327.8,2359.1,316.2z"/>
			<path class="st0" d="M2402.6,266.5c-1.2-0.9-2-1.5-3.2-2.9c-8.7,7.5-18.6,20.5-24,30.2c-8.2,59-109.5,81-164.2,25.4
				c-45.3-46.1-15.6-114.4,63.6-114.9c23.4-0.2,45.1,7.2,54.1,12.8c8.4,5.3,20.6,0.9,32.3-8c-0.6-1.8-1.3-3.7-1.8-5.6
				c-52.6-38.6-132.9-35.2-172.9,4.1c-44,43.2-35,100.3,1,136.9c52.5,53.5,142.6,53.6,190,7C2402,327.4,2409.5,296,2402.6,266.5z"/>
			<g>
				<path class="st0" d="M2573.3,154.8c-33.7-34.3-79.8-51.8-120.3-52.2c0.6,9.8-0.2,20.4-1.5,29.1c32.7-0.2,71.5,14.9,97.4,41.2
					c21.7,22.1,38.5,57.7,15.3,80.5c-7.1,7-16.8,11.6-27.9,13.9c4.8,10.4,8.4,21.4,10.8,32.8
					C2616.2,281.8,2628.3,210.7,2573.3,154.8z"/>
				<path class="st0" d="M2479.6,269.3c-1.7-2.3-4.5-7.6-16.7-12.9c-31.7-13.6-66.5-44.7-69.2-80.6c-0.4-5.7,0.2-13.3,6.4-23.2
					c5.6-8.9,9.7-29.7,9.9-43c-40.4,15.5-66.2,60.8-33.6,116.6c21.3,36.6,67.2,68.2,118.1,75.8
					C2492,290.6,2485.2,276.7,2479.6,269.3z"/>
			</g>
		</g>
		<path class="st1" d="M2613.4,581.8c0-14.3-45.3-25.1-106.9-25.1c-32.1,0-62.2,2.5-85.4,6.7c-5.1-6.5-20.8-12.9-53.5-15.7
			c-29.4-9.7-59.9-17.7-75.3-17.7c-8.4,0-15.9,2.1-15.9,5.6c0,2.8,6.3,6.9,16.4,11.7c-64.1,4.1-138.5,18.3-138.5,36.9
			c0,13,42.5,21.6,94.7,21.6c42.4,0,80.4-4,109.9-9.7c43.3,21.6,126,47.2,163.2,47.2c9.7,0,25.8-1.9,25.8-8
			c0-6.2-16.1-15.8-39.1-25.9C2575.7,606.3,2613.4,592.5,2613.4,581.8z M2364.6,557.9c6.2,2.2,12.3,4.5,19.5,7.3
			c-10.1-3-17.7-5.4-24.8-7.9C2361.2,557.5,2363,557.7,2364.6,557.9z M2403.8,586.8c9.9,2.9,20.4,6.2,30.8,9.8
			C2418.6,594.4,2406.7,591,2403.8,586.8z M2250.1,593.4c-36.9,0-60.2-4.4-60.2-10.6c0-10.3,59.8-25.1,124.1-26.7
			c9.3,3.6,19.6,7.2,30.2,10.6c-8.1,1.3-12.7,3.8-12.7,7.7c0,3,3.3,6.8,9.1,10.9C2314.3,590.1,2281.1,593.4,2250.1,593.4z
			 M2445.7,608.5c7.7,0.6,15.7,1,23.9,1.2c14.2,5.8,25.7,11.4,31.5,15.5C2484.1,620.9,2464.4,614.9,2445.7,608.5z M2484.9,599.5
			c-14.7-5.6-30.6-11.1-46.3-15.9c2.3-0.9,3.4-2,3.4-3.1c0-1.8-4.8-4.9-12.9-8.8c17.7-3.8,43.2-6.4,72.2-6.4
			c45.7,0,80.7,6.6,80.7,15.2C2582.1,590.2,2534,599.1,2484.9,599.5z"/>
	</g>
</g>
</svg>
